<?xml version="1.0" encoding="windows-1252"?>
<!-- Generator: Adobe Illustrator 16.0.0, SVG Export Plug-In . SVG Version: 6.00 Build 0)  -->
<!DOCTYPE svg PUBLIC "-//W3C//DTD SVG 1.1//EN" "http://www.w3.org/Graphics/SVG/1.1/DTD/svg11.dtd">
<svg version="1.1" id="Layer_1" xmlns="http://www.w3.org/2000/svg" xmlns:xlink="http://www.w3.org/1999/xlink" x="0px" y="0px" width="512px" height="512px" viewBox="0 0 512 512" style="enable-background:new 0 0 512 512;" xml:space="preserve">
<g id="Grid_1_">
	<g id="Layer_1_1_">
		<g id="Grid">
			<g>
				<rect style="fill:none;stroke:#A9CCDB;stroke-miterlimit:10;" width="512" height="512"/>
				<line style="fill:none;stroke:#A9CCDB;stroke-miterlimit:10;" x1="0" y1="480" x2="512" y2="480"/>
				<line style="fill:none;stroke:#A9CCDB;stroke-miterlimit:10;" x1="0" y1="448" x2="512" y2="448"/>
				<line style="fill:none;stroke:#A9CCDB;stroke-miterlimit:10;" x1="0" y1="416" x2="512" y2="416"/>
				<line style="fill:none;stroke:#A9CCDB;stroke-miterlimit:10;" x1="0" y1="384" x2="512" y2="384"/>
				<line style="fill:none;stroke:#A9CCDB;stroke-miterlimit:10;" x1="0" y1="352" x2="512" y2="352"/>
				<line style="fill:none;stroke:#A9CCDB;stroke-miterlimit:10;" x1="0" y1="320" x2="512" y2="320"/>
				<line style="fill:none;stroke:#A9CCDB;stroke-miterlimit:10;" x1="0" y1="288" x2="512" y2="288"/>
				<line style="fill:none;stroke:#A9CCDB;stroke-miterlimit:10;" x1="0" y1="256" x2="512" y2="256"/>
				<line style="fill:none;stroke:#A9CCDB;stroke-miterlimit:10;" x1="0" y1="224" x2="512" y2="224"/>
				<line style="fill:none;stroke:#A9CCDB;stroke-miterlimit:10;" x1="0" y1="192" x2="512" y2="192"/>
				<line style="fill:none;stroke:#A9CCDB;stroke-miterlimit:10;" x1="0" y1="160" x2="512" y2="160"/>
				<line style="fill:none;stroke:#A9CCDB;stroke-miterlimit:10;" x1="0" y1="128" x2="512" y2="128"/>
				<line style="fill:none;stroke:#A9CCDB;stroke-miterlimit:10;" x1="0" y1="96" x2="512" y2="96"/>
				<line style="fill:none;stroke:#A9CCDB;stroke-miterlimit:10;" x1="0" y1="64" x2="512" y2="64"/>
				<line style="fill:none;stroke:#A9CCDB;stroke-miterlimit:10;" x1="0" y1="32" x2="512" y2="32"/>
				<line style="fill:none;stroke:#A9CCDB;stroke-miterlimit:10;" x1="480" y1="0" x2="480" y2="512"/>
				<line style="fill:none;stroke:#A9CCDB;stroke-miterlimit:10;" x1="448" y1="0" x2="448" y2="512"/>
				<line style="fill:none;stroke:#A9CCDB;stroke-miterlimit:10;" x1="416" y1="0" x2="416" y2="512"/>
				<line style="fill:none;stroke:#A9CCDB;stroke-miterlimit:10;" x1="384" y1="0" x2="384" y2="512"/>
				<line style="fill:none;stroke:#A9CCDB;stroke-miterlimit:10;" x1="352" y1="0" x2="352" y2="512"/>
				<line style="fill:none;stroke:#A9CCDB;stroke-miterlimit:10;" x1="320" y1="0" x2="320" y2="512"/>
				<line style="fill:none;stroke:#A9CCDB;stroke-miterlimit:10;" x1="288" y1="0" x2="288" y2="512"/>
				<line style="fill:none;stroke:#A9CCDB;stroke-miterlimit:10;" x1="256" y1="0" x2="256" y2="512"/>
				<line style="fill:none;stroke:#A9CCDB;stroke-miterlimit:10;" x1="224" y1="0" x2="224" y2="512"/>
				<line style="fill:none;stroke:#A9CCDB;stroke-miterlimit:10;" x1="192" y1="0" x2="192" y2="512"/>
				<line style="fill:none;stroke:#A9CCDB;stroke-miterlimit:10;" x1="160" y1="0" x2="160" y2="512"/>
				<line style="fill:none;stroke:#A9CCDB;stroke-miterlimit:10;" x1="128" y1="0" x2="128" y2="512"/>
				<line style="fill:none;stroke:#A9CCDB;stroke-miterlimit:10;" x1="96" y1="0" x2="96" y2="512"/>
				<line style="fill:none;stroke:#A9CCDB;stroke-miterlimit:10;" x1="64" y1="0" x2="64" y2="512"/>
				<line style="fill:none;stroke:#A9CCDB;stroke-miterlimit:10;" x1="32" y1="0" x2="32" y2="512"/>
			</g>
		</g>
	</g>
</g>
<g>
	<path d="M192,96v48c47.011,0,91.209,18.307,124.451,51.549S368,272.988,368,320h48C416,196.289,315.712,96,192,96z"/>
	<path d="M192,0v48c36.741,0,72.357,7.185,105.859,21.355c32.384,13.697,61.478,33.316,86.474,58.312   c24.995,24.996,44.614,54.09,58.312,86.474C456.815,247.643,464,283.26,464,320h48C512,143.27,368.73,0,192,0z"/>
	<path d="M207.999,192C159.999,224,96,224,96,224C96,352,0,448,0,448l20.687,20.687L148.68,340.692   C145.682,334.427,144,327.41,144,320c0-26.51,21.49-48,48-48s48,21.49,48,48s-21.49,48-48,48c-7.41,0-14.426-1.682-20.692-4.68   L43.313,491.313L64,512c0,0,96-96,224-96c0,0,0-63.973,31.98-111.97c0.013-28.673-10.906-57.348-32.784-79.226   C265.326,202.935,236.663,192,207.999,192z"/>
</g>
</svg>